HIERARCHY
ROOT idle
{
	OFFSET 0.000000 0.000000 0.000000
	CHANNELS 6 Xposition Yposition Zposition Xrotation Yrotation Zrotation
	JOINT Spine_01
	{
		OFFSET 0.000000 138.184219 -44.816219
		CHANNELS 3 Xrotation Yrotation Zrotation
		JOINT Spine_02
		{
			OFFSET -0.000001 -4.180252 28.050501
			CHANNELS 3 Xrotation Yrotation Zrotation
			JOINT Spine_03
			{
				OFFSET 0.000225 -2.921967 35.446671
				CHANNELS 3 Xrotation Yrotation Zrotation
				JOINT Spine_04
				{
					OFFSET -0.003229 1.217178 39.278065
					CHANNELS 3 Xrotation Yrotation Zrotation
					JOINT Neck_Base
					{
						OFFSET -0.002599 3.589127 29.437267
						CHANNELS 3 Xrotation Yrotation Zrotation
						JOINT Neck_01
						{
							OFFSET -0.043851 17.877197 9.460396
							CHANNELS 3 Xrotation Yrotation Zrotation
							JOINT Neck_02
							{
								OFFSET -0.090427 15.300186 15.305344
								CHANNELS 3 Xrotation Yrotation Zrotation
								JOINT Head
								{
									OFFSET 0.125823 15.540573 15.523781
									CHANNELS 3 Xrotation Yrotation Zrotation
									JOINT L_Ear
									{
										OFFSET 8.540829 16.285645 9.196762
										CHANNELS 3 Xrotation Yrotation Zrotation
										End Site
										{
											OFFSET 6.240585 6.341034 -14.343224
										}
									}
									JOINT R_Ear
									{
										OFFSET -7.277507 17.143448 8.711563
										CHANNELS 3 Xrotation Yrotation Zrotation
										End Site
										{
											OFFSET 4.631270 -6.930466 14.676575
										}
									}
									JOINT Jaw
									{
										OFFSET -0.485492 -4.110336 8.566040
										CHANNELS 3 Xrotation Yrotation Zrotation
										End Site
										{
											OFFSET 0.973268 16.705750 -2.202789
										}
									}
								}
							}
						}
					}
					JOINT R_Scapula
					{
						OFFSET -6.758663 17.541138 7.673435
						CHANNELS 3 Xrotation Yrotation Zrotation
						JOINT R_Shoulder
						{
							OFFSET -4.010945 -35.521355 22.007339
							CHANNELS 3 Xrotation Yrotation Zrotation
							JOINT R_Front_UpperLeg
							{
								OFFSET -3.174627 -27.349258 -18.725433
								CHANNELS 3 Xrotation Yrotation Zrotation
								JOINT R_Front_LowerLeg
								{
									OFFSET 1.580475 -39.718163 2.866249
									CHANNELS 3 Xrotation Yrotation Zrotation
									JOINT R_Front_Ankle
									{
										OFFSET 1.215116 -30.536602 2.203590
										CHANNELS 3 Xrotation Yrotation Zrotation
										JOINT R_Front_Hoof
										{
											OFFSET 0.000596 -9.176675 4.106583
											CHANNELS 3 Xrotation Yrotation Zrotation
											End Site
											{
												OFFSET -0.000577 -0.001087 -10.053635
											}
										}
									}
								}
							}
						}
					}
					JOINT L_Scapula
					{
						OFFSET 6.753941 17.542343 7.674480
						CHANNELS 3 Xrotation Yrotation Zrotation
						JOINT L_Shoulder
						{
							OFFSET 2.964276 -35.661980 21.945183
							CHANNELS 3 Xrotation Yrotation Zrotation
							JOINT L_Front_UpperLeg
							{
								OFFSET 1.995764 -26.938873 -19.468185
								CHANNELS 3 Xrotation Yrotation Zrotation
								JOINT L_Front_LowerLeg
								{
									OFFSET -0.865696 -39.609680 -4.306599
									CHANNELS 3 Xrotation Yrotation Zrotation
									JOINT L_Front_Ankle
									{
										OFFSET -0.665508 -30.452812 -3.315022
										CHANNELS 3 Xrotation Yrotation Zrotation
										JOINT L_Front_Hoof
										{
											OFFSET 0.003840 -9.222033 4.003555
											CHANNELS 3 Xrotation Yrotation Zrotation
											End Site
											{
												OFFSET 0.010533 -0.111383 10.052948
											}
										}
									}
								}
							}
						}
					}
				}
			}
		}
		JOINT L_Hip
		{
			OFFSET 14.887411 -7.729385 -12.131313
			CHANNELS 3 Xrotation Yrotation Zrotation
			JOINT L_Back_UpperLeg
			{
				OFFSET 0.000000 -34.478600 8.440952
				CHANNELS 3 Xrotation Yrotation Zrotation
				JOINT L_Back_LowerLeg
				{
					OFFSET -3.196044 -42.364517 -14.576759
					CHANNELS 3 Xrotation Yrotation Zrotation
					JOINT L_Back_Ankle
					{
						OFFSET 1.660011 -33.756645 12.929783
						CHANNELS 3 Xrotation Yrotation Zrotation
						JOINT L_Back_Hoof
						{
							OFFSET 0.584125 -11.035231 3.766605
							CHANNELS 3 Xrotation Yrotation Zrotation
							End Site
							{
								OFFSET 1.787004 -0.000511 11.537395
							}
						}
					}
				}
			}
		}
		JOINT R_Hip
		{
			OFFSET -14.887404 -7.729263 -12.131302
			CHANNELS 3 Xrotation Yrotation Zrotation
			JOINT R_Back_UpperLeg
			{
				OFFSET -0.000002 -35.225861 4.378201
				CHANNELS 3 Xrotation Yrotation Zrotation
				JOINT R_Back_LowerLeg
				{
					OFFSET 3.960892 -39.350449 -21.290855
					CHANNELS 3 Xrotation Yrotation Zrotation
					JOINT R_Back_Ankle
					{
						OFFSET -0.901290 -36.023094 3.312836
						CHANNELS 3 Xrotation Yrotation Zrotation
						JOINT R_Back_Hoof
						{
							OFFSET -0.767009 -11.035016 3.734154
							CHANNELS 3 Xrotation Yrotation Zrotation
							End Site
							{
								OFFSET 2.350103 -0.000015 -11.435944
							}
						}
					}
				}
			}
		}
		JOINT Tail_01
		{
			OFFSET 0.000002 9.427841 -23.815624
			CHANNELS 3 Xrotation Yrotation Zrotation
			JOINT Tail_02
			{
				OFFSET -2.436646 -10.035355 -19.528259
				CHANNELS 3 Xrotation Yrotation Zrotation
				JOINT Tail_03
				{
					OFFSET -6.616276 -21.546600 -6.098259
					CHANNELS 3 Xrotation Yrotation Zrotation
					JOINT Tail_04
					{
						OFFSET -9.807926 -21.052444 0.112030
						CHANNELS 3 Xrotation Yrotation Zrotation
						JOINT Tail_05
						{
							OFFSET -10.701092 -20.679657 1.963898
							CHANNELS 3 Xrotation Yrotation Zrotation
							End Site
							{
								OFFSET -2.487253 -0.917824 -23.216141
							}
						}
					}
				}
			}
		}
	}
}
MOTION
Frames: 7
Frame Time: 0.033333
0.000000 0.000000 0.000000 0.000006 0.000000 -0.000000 -0.203885 0.000010 0.000000 0.215661 0.871376 0.084373 0.072804 -0.108093 -0.059947 -0.084810 -0.756502 -0.024307 3.104735 2.346942 -0.842653 -1.783975 11.781609 0.896796 -1.883509 12.967684 3.298467 -3.699796 1.904016 -1.154070 5.363426 0.330021 4.259347 6.068935 -5.282093 -8.609117 0.000320 0.000614 0.000738 0.000005 -0.000002 -0.000044 0.146190 -0.016723 -0.000330 -0.081189 -1.470702 -2.221900 -0.000095 0.000096 0.000006 -0.042897 1.468856 2.233332 0.000025 -0.000056 0.000025 0.145026 0.014596 -0.000009 -0.315303 -0.024875 0.002059 0.061208 -1.589506 -2.503888 -0.000021 0.000001 -0.000002 0.033926 1.595911 2.516430 -0.000028 0.000075 -0.000033 -0.000007 0.000002 -0.000021 0.254019 1.014374 -1.054017 0.227717 -0.003735 -0.038991 -0.261325 -1.022149 1.088999 -0.000048 0.000135 -0.000043 -0.000015 0.000008 -0.000055 0.328460 0.890285 -0.886099 -0.060457 0.000414 -0.012000 -0.049629 -0.896277 0.894246 0.000010 -0.000040 0.000026 -3.613069 1.540440 0.128233 -3.249784 1.425285 -0.816154 -1.245605 1.356291 1.701950 1.427688 0.507244 -2.283985 0.000020 -0.000007 -0.000013 
0.000000 0.000000 0.000000 0.000006 0.000000 -0.000000 -0.150741 0.000010 0.000000 0.159462 0.861781 0.083544 0.053208 -0.108094 -0.059716 -0.062077 -0.748198 -0.024966 3.031818 2.423264 -0.868370 -1.728829 11.756315 0.928084 -1.813643 12.867140 3.322128 -3.633863 1.771668 -1.100393 5.099927 0.488134 4.193116 5.998220 -4.916777 -8.204766 0.000319 0.000608 0.000738 0.000005 -0.000003 -0.000052 0.146198 -0.016725 -0.000330 -0.080876 -1.462700 -2.209836 -0.000095 0.000096 0.000006 -0.042625 1.460726 2.221329 0.000023 -0.000058 0.000026 0.143796 0.014505 -0.000012 -0.315311 -0.024845 0.002057 0.060402 -1.580976 -2.490395 -0.000021 0.000000 -0.000001 0.034462 1.589611 2.501836 -0.000025 0.000084 -0.000037 -0.000009 0.000003 -0.000030 0.178094 1.020594 -1.055197 0.213428 -0.003489 -0.036544 -0.224096 -1.028154 1.088131 -0.000040 -0.000003 0.000003 -0.000014 0.000011 -0.000073 0.263769 0.886134 -0.884193 -0.099199 0.000688 -0.019693 0.000747 -0.892171 0.899937 0.000009 -0.000038 0.000027 -3.787481 1.660046 -0.206712 -3.593721 1.609148 -1.791317 -1.855663 1.546240 0.211330 0.568482 0.695029 -4.445157 0.000026 0.000001 -0.000013 
0.000000 0.000000 0.000000 0.000006 0.000000 -0.000000 -0.091284 0.000010 0.000000 0.096440 0.850583 0.082589 0.031245 -0.108094 -0.059484 -0.036591 -0.738522 -0.025702 2.963349 2.502624 -0.895159 -1.676702 11.729667 0.958770 -1.749264 12.763221 3.342268 -3.575099 1.639879 -1.046318 4.834534 0.650386 4.127843 5.915994 -4.567614 -7.808919 0.000319 0.000611 0.000739 0.000005 -0.000003 -0.000060 0.146301 -0.016737 -0.000330 -0.080505 -1.453365 -2.195754 -0.000094 0.000096 0.000006 -0.042306 1.451531 2.207186 0.000025 -0.000060 0.000027 0.142059 0.014373 -0.000012 -0.315317 -0.024816 0.002056 0.059741 -1.571016 -2.474641 -0.000021 0.000000 -0.000001 0.035087 1.582258 2.484823 -0.000027 0.000093 -0.000041 -0.000007 0.000004 -0.000040 0.092828 1.027583 -1.056553 0.197684 -0.003220 -0.033848 -0.182486 -1.034848 1.087257 -0.000037 0.000009 0.000000 -0.000014 0.000013 -0.000092 0.191032 0.881478 -0.881598 -0.142273 0.000998 -0.028243 0.056996 -0.887463 0.906483 0.000010 -0.000039 0.000027 -3.924400 1.670462 -0.332835 -3.898521 1.726432 -2.528484 -2.444672 1.694396 -1.081321 -0.313630 0.865499 -6.444184 0.000031 0.000011 -0.000012 
0.000000 0.000000 0.000000 0.000006 0.000000 -0.000000 -0.025749 0.000010 0.000000 0.027067 0.837839 0.081534 0.007075 -0.106403 -0.059304 -0.008542 -0.727406 -0.024911 2.905466 2.585158 -0.923332 -1.632033 11.696392 0.984204 -1.698117 12.654091 3.355260 -3.532623 1.512060 -0.992624 4.567282 0.816812 4.063594 5.822304 -4.235727 -7.422381 0.000319 0.000606 0.000739 0.000005 -0.000007 -0.000124 0.146301 -0.016799 -0.000327 -0.080093 -1.442723 -2.179706 -0.000094 0.000096 0.000006 -0.041980 1.441302 2.190951 0.000025 -0.000062 0.000028 0.140313 0.014241 -0.000011 -0.311845 -0.024629 0.002038 0.059191 -1.559674 -2.456695 -0.000021 0.000001 -0.000001 0.035925 1.570751 2.466776 -0.000028 0.000103 -0.000045 -0.000007 0.000006 -0.000049 -0.001151 1.035221 -1.057845 0.180705 -0.002930 -0.030938 -0.136915 -1.042274 1.086143 -0.000040 0.000016 -0.000003 -0.000015 0.000016 -0.000111 0.110747 0.876537 -0.878673 -0.189212 0.001341 -0.037561 0.118725 -0.882394 0.913211 0.000010 -0.000038 0.000027 -4.018640 1.539087 -0.164469 -4.156676 1.774968 -2.995138 -3.000407 1.801349 -2.141051 -1.200732 1.021203 -8.238830 0.000035 0.000023 -0.000014 
0.000000 0.000000 0.000000 0.000006 0.000000 -0.000000 0.045239 0.000010 0.000000 -0.048152 0.823571 0.080364 -0.019116 -0.104345 -0.059131 0.021869 -0.714960 -0.023868 2.864322 2.671032 -0.953198 -1.599376 11.654070 1.002560 -1.667946 12.537941 3.357475 -3.515641 1.391592 -0.940063 4.298248 0.987449 4.000409 5.717121 -3.922181 -7.045972 0.000320 0.000609 0.000739 0.000005 0.000001 0.000001 0.146417 -0.016750 -0.000330 -0.079626 -1.430818 -2.161742 -0.000094 0.000096 0.000006 -0.041542 1.429427 2.172979 0.000025 -0.000065 0.000029 0.138514 0.014103 -0.000012 -0.307889 -0.024317 0.002013 0.058779 -1.546982 -2.436605 -0.000021 0.000001 -0.000002 0.036838 1.557781 2.446609 -0.000030 0.000205 -0.000089 -0.000007 0.000007 -0.000058 -0.103254 1.043543 -1.059281 0.162695 -0.002627 -0.027852 -0.087713 -1.050290 1.085069 -0.000043 0.000027 -0.000006 -0.000014 0.000031 -0.000223 0.023481 0.870959 -0.875642 -0.239592 0.001719 -0.047562 0.185372 -0.876885 0.920393 0.000010 -0.000039 0.000027 -4.073728 1.255462 0.331636 -4.359396 1.752376 -3.158837 -3.509507 1.867201 -2.933031 -2.073183 1.163454 -9.787222 0.000039 0.000032 -0.000020 
0.000000 0.000000 0.000000 0.000006 0.000000 -0.000000 0.121314 0.000010 0.000000 -0.128736 0.807849 0.079090 -0.047171 -0.102245 -0.058971 0.054460 -0.701250 -0.022867 2.846145 2.760330 -0.985129 -1.583253 11.599602 1.011342 -1.666562 12.413018 3.345346 -3.533285 1.281798 -0.889365 4.027475 1.162357 3.938342 5.600502 -3.628111 -6.680606 0.000319 0.000610 0.000739 0.000005 -0.000000 -0.000011 0.146401 -0.016810 -0.000326 -0.079102 -1.417681 -2.141931 -0.000094 0.000096 0.000006 -0.041056 1.416206 2.153201 0.000025 -0.000067 0.000030 0.136681 0.013965 -0.000010 -0.303749 -0.023989 0.001987 0.058481 -1.532973 -2.414442 -0.000020 0.000001 -0.000002 0.037848 1.543662 2.424292 -0.000028 0.000001 -0.000000 -0.000009 0.000008 -0.000068 -0.212804 1.052667 -1.061331 0.143873 -0.002309 -0.024627 -0.035263 -1.058893 1.083966 -0.000041 0.000035 -0.000009 -0.000015 0.000000 0.000001 -0.070316 0.864882 -0.872493 -0.292924 0.002128 -0.058148 0.256436 -0.870922 0.928102 0.000012 -0.000039 0.000028 -4.096534 0.845641 1.101190 -4.494945 1.641293 -2.893696 -3.957605 1.891629 -3.422676 -2.909882 1.292335 -11.048135 0.000046 0.000043 -0.000018 
0.000000 0.000000 0.000000 0.000006 0.000000 -0.000000 0.202013 0.000010 0.000000 -0.214213 0.791145 0.077739 -0.076909 -0.100111 -0.058798 0.089012 -0.686682 -0.021894 2.848643 2.853409 -1.019247 -1.581940 11.533073 1.011006 -1.691249 12.278710 3.319741 -3.582325 1.180514 -0.839800 3.754991 1.341576 3.877388 5.472458 -3.354512 -6.327039 0.000319 0.000611 0.000739 0.000005 -0.000001 -0.000022 0.146546 -0.016766 -0.000329 -0.078554 -1.403349 -2.120305 -0.000095 0.000096 0.000006 -0.040540 1.401954 2.131545 0.000023 -0.000069 0.000031 0.134821 0.013823 -0.000008 -0.299136 -0.023625 0.001958 0.057740 -1.517683 -2.390253 -0.000021 0.000001 -0.000002 0.037412 1.528193 2.399947 -0.000031 0.000006 -0.000002 -0.000005 0.000017 -0.000133 -0.329229 1.061437 -1.061796 0.124313 -0.001977 -0.021275 0.020152 -1.067489 1.082302 -0.000041 0.000045 -0.000012 -0.000014 0.000002 -0.000015 -0.170132 0.858179 -0.868650 -0.348723 0.002569 -0.069224 0.331369 -0.864131 0.935686 0.000010 -0.000041 0.000028 -4.085000 0.335815 2.089875 -4.550350 1.436072 -2.149421 -4.329304 1.873972 -3.575422 -3.688510 1.406865 -11.980671 0.000051 0.000054 -0.000019 
